<svg width="41" height="29" viewBox="0 0 41 29" fill="none" xmlns="http://www.w3.org/2000/svg">
<path d="M36.49 15.8385C36.695 14.9462 36.9 14.2769 36.9 13.3846C36.9 8.47692 33.21 4.46154 28.7 4.46154C27.88 4.46154 27.06 4.68461 26.445 4.90769C24.395 2.00769 21.115 0 17.425 0C11.275 0 6.15 5.57692 6.15 12.2692C6.15 13.3846 6.355 14.5 6.56 15.6154H6.15C2.665 15.6154 0 18.5154 0 22.3077C0 26.1 2.665 29 6.15 29H16.4V20.0769H12.3L20.5 11.1538L28.7 20.0769H24.6V29H34.85C38.335 29 41 26.1 41 22.3077C41 19.1846 39.155 16.7308 36.49 15.8385Z" fill="#727272"/>
</svg>
