<svg width="172" height="106" viewBox="0 0 172 106" fill="none" xmlns="http://www.w3.org/2000/svg">
<path d="M78.2744 48.1227C79.3503 48.9376 80.6837 49.3393 82.0314 49.2544C83.3791 49.1695 84.6514 48.6036 85.6161 47.6601C91.2709 42.1594 103.875 33.0536 119.706 40.9577C119.706 40.9577 140.669 47.9366 132.944 75.6513C132.944 75.6513 128.714 85.5666 138.826 91.6254L154.083 102.461C154.083 102.461 160.705 108.334 164.562 97.1361C164.562 97.1361 176.33 74.7362 170.262 50.1339C170.262 50.1339 163.091 10.8447 118.226 0.743365C118.226 0.743365 79.8304 -6.6529 57.0299 25.2149C56.1883 26.4036 55.8428 27.8726 56.0665 29.3111C56.2901 30.7496 57.0654 32.0449 58.2283 32.9229L78.2744 48.1227Z" fill="white"/>
<path d="M39.8695 19.075C40.9911 19.8331 41.8025 20.9685 42.1559 22.2741C42.5092 23.5798 42.3809 24.9687 41.7943 26.1877C38.3842 33.3257 33.787 48.2171 46.4117 60.6872C46.4117 60.6872 59.8094 78.3429 83.6949 62.0542C83.6949 62.0542 91.778 54.8456 100.791 62.483L116.017 73.4649C116.017 73.4649 123.742 77.8486 114.33 85.1228C114.33 85.1228 96.8148 103.51 71.4491 105.689C71.4491 105.689 31.7561 111.561 7.67358 72.2593C7.67358 72.2593 -11.7511 38.2239 11.2099 6.31742C12.0698 5.13627 13.356 4.33533 14.7966 4.08397C16.2372 3.83262 17.7192 4.15055 18.9293 4.97054L39.8695 19.075Z" fill="white"/>
</svg>
