<svg width="150" height="150" viewBox="0 0 150 150" fill="none" xmlns="http://www.w3.org/2000/svg">
<path d="M130.813 74.9926C126.06 74.9926 121.308 74.9926 116.519 74.9926C114.784 75.086 113.062 74.6397 111.591 73.7152C110.119 72.7906 108.97 71.4331 108.301 69.8292C106.514 66.095 103.638 64.353 99.5015 64.362C83.0285 64.4037 66.5555 64.4037 50.0825 64.362C48.2679 64.2556 46.4649 64.7138 44.9213 65.6736C43.3777 66.6333 42.1692 68.0476 41.4618 69.722C39.7198 73.2953 36.888 75.0819 32.8233 75.0105C23.3183 74.9211 13.8133 75.0105 4.30823 75.0105C3.9777 75.0105 3.6561 75.0105 3.32557 75.0105C1.11011 74.8943 -0.060151 73.8134 0.00238205 71.6337C0.166933 66.4718 0.925303 61.3461 2.26251 56.3577C2.8521 54.1602 3.74543 53.5527 6.05023 53.5527C10.9635 53.5527 15.8769 53.5527 20.7991 53.5527C26.2037 53.5527 31.6173 53.5527 37.022 53.5527C41.1224 53.5527 44.0793 51.9268 45.8749 48.1927C47.5901 44.6194 50.4666 42.8327 54.5223 42.8863C68.1247 42.9399 81.7272 42.9399 95.3296 42.8863C99.3585 42.8863 102.217 44.6015 103.941 48.2463C105.665 51.8911 108.578 53.6063 112.589 53.6063C122.415 53.6063 132.242 53.6063 142.069 53.6063C142.81 53.6063 143.543 53.6063 144.284 53.6063C145.034 53.5968 145.763 53.8511 146.344 54.3246C146.926 54.7981 147.322 55.4608 147.464 56.1969C148.796 61.1668 149.54 66.2759 149.68 71.4193C149.68 73.9653 148.688 74.9301 146.062 74.9479C140.97 74.9926 135.896 74.9926 130.813 74.9926Z" fill="white"/>
<path d="M13.7148 96.379C15.5997 96.379 17.4847 96.379 19.3696 96.379C23.327 96.3343 26.3018 94.6816 28.0259 91.019C29.7501 87.3563 32.7427 85.5965 36.852 85.5965C62.2405 85.5965 87.6319 85.5965 113.026 85.5965C117.136 85.5965 120.084 87.3295 121.826 91.0726C123.496 94.6459 126.408 96.3075 130.259 96.3611C134.109 96.4147 137.798 96.3611 141.559 96.3611C145.034 96.3611 146.249 98.1478 145.016 101.489C143.209 106.323 140.894 110.953 138.111 115.3C136.548 117.756 135.431 118.203 132.546 117.64C131.37 117.442 130.251 116.994 129.264 116.325C128.278 115.656 127.447 114.782 126.828 113.763C126.399 113.066 126.06 112.316 125.658 111.61C124.985 110.334 123.991 109.256 122.773 108.482C121.556 107.708 120.158 107.265 118.717 107.197C117.904 107.135 117.082 107.144 116.26 107.144H33.4574C33.2073 107.144 32.9661 107.144 32.7159 107.144C30.7813 106.955 28.838 107.402 27.1806 108.418C25.5233 109.434 24.2425 110.962 23.5325 112.772C22.8939 114.205 21.8722 115.435 20.5798 116.326C19.2874 117.216 17.7743 117.733 16.2072 117.819C15.3964 117.967 14.5598 117.861 13.8115 117.516C13.0632 117.17 12.4398 116.602 12.0264 115.889C9.1391 111.415 6.72599 106.651 4.82617 101.676C4.64018 101.223 4.49664 100.754 4.39737 100.274C3.99537 97.9334 5.17457 96.4951 7.56869 96.3611H13.7148V96.379Z" fill="white"/>
<path d="M35.7443 32.1664C30.7506 32.1664 25.748 32.1664 20.7543 32.1664C20.0204 32.2103 19.2843 32.1349 18.5745 31.943C16.4395 31.1926 15.8945 28.6467 17.5472 26.6724C20.4783 23.1367 23.7453 19.8937 27.3024 16.9887C29.5178 15.202 31.8673 13.5226 34.2346 11.9057C35.5263 11.0343 37.0643 10.602 38.6209 10.6729C43.8647 10.7265 49.1086 10.6729 54.3524 10.6729C58.819 10.7443 62.0261 8.9934 63.9646 4.83941C64.5964 3.35359 65.6657 2.09533 67.03 1.23201C68.3944 0.368698 69.9893 -0.0587599 71.6026 0.00649915C73.7287 0.00649915 75.8548 0.00649915 77.9899 0.00649915C81.7508 0.00649915 84.3683 1.79316 86.0299 5.08061C86.6273 6.44131 87.5074 7.65937 88.6116 8.65393C90.4216 10.0734 92.6838 10.7905 94.981 10.6729C100.386 10.6729 105.799 10.7175 111.204 10.6729C112.842 10.6319 114.45 11.1138 115.796 12.0486C121.617 15.887 126.893 20.4935 131.483 25.7433C132.617 27.0476 133.832 28.3519 132.93 30.3261C132.027 32.3004 130.25 32.1664 128.508 32.1664C118.842 32.1664 109.176 32.1038 99.5102 32.1664C95.1954 32.1664 92.1492 30.5048 90.3 26.5563C89.6387 24.9968 88.5108 23.6803 87.0712 22.7878C85.6316 21.8952 83.9509 21.4703 82.26 21.5715C77.3467 21.5715 72.4334 21.5715 67.5112 21.5715C65.8141 21.4745 64.1289 21.9072 62.6885 22.8099C61.2482 23.7125 60.1239 25.0404 59.4712 26.6099C57.6845 30.4422 54.7097 32.2289 50.4753 32.1574C45.5799 32.1128 40.6577 32.1664 35.7443 32.1664Z" fill="white"/>
<path d="M74.792 128.387H116.573C117.395 128.387 118.217 128.387 119.03 128.432C119.694 128.424 120.343 128.635 120.875 129.032C121.408 129.429 121.795 129.99 121.978 130.629C122.214 131.259 122.237 131.949 122.046 132.594C121.854 133.239 121.457 133.804 120.915 134.202L119.95 134.962C93.6949 154.972 56.309 155.017 29.9468 135.069L29.5538 134.765C27.7224 133.318 27.2311 132.166 27.7671 130.611C28.455 128.735 30.0004 128.423 31.7424 128.423L74.792 128.387Z" fill="white"/>
</svg>
